<svg width="175" height="198" viewBox="0 0 175 198" fill="none" xmlns="http://www.w3.org/2000/svg">
<path fill-rule="evenodd" clip-rule="evenodd" d="M54.7331 5.34147C55.7042 2.7494 57.8249 0.87669 60.5543 0.20111C61.1049 0.0651252 84.3808 -0.0230806 112.278 0.00531918C160.375 0.0547682 163.071 0.0885136 164.336 0.65985C166.144 1.47576 167.453 2.76577 168.301 4.56799C168.997 6.04845 169.01 6.42901 169.103 29.2701C169.168 45.2986 169.083 53.02 168.827 54.2522C168.369 56.4637 166.814 58.577 164.821 59.6969C163.847 60.2448 162.749 60.5362 161.631 60.5437L148.964 60.6291L134.593 60.7257L134.741 70.8998C134.901 81.7969 134.863 82.0826 133.258 82.0826C132.82 82.0826 129.451 80.5741 125.771 78.7301L119.081 75.3776L116.116 74.1069C116.116 73.9893 110.184 70.9242 102.934 67.296L89.7511 60.6993H75.6304C59.7123 60.6993 59.1604 60.6331 56.9159 58.455C56.3645 57.9199 55.9337 57.523 55.597 57.0579C54.3539 55.3405 54.3946 52.6938 54.3881 38.7312L54.3807 22.9443V19.9373V13.1096C54.3807 9.13367 54.5279 5.88908 54.7331 5.34147ZM164.636 4.49495C164.395 4.26732 164.105 4.09094 163.757 3.84263C163.049 3.33649 162.2 3.06398 161.329 3.06307L112.445 3.01202C84.8229 2.98295 61.7226 3.07917 61.1112 3.22585C59.8348 3.5319 58.2667 4.91146 57.7355 6.19613C57.4805 6.81224 57.3977 14.1815 57.4608 30.6897C57.5496 53.9461 57.5613 54.3163 58.239 55.2248C58.6174 55.7323 59.3416 56.4573 59.8478 56.8362C60.7385 57.5025 61.2727 57.5308 76.0121 57.6922L91.2551 57.8593L111.361 67.9669C122.419 73.5259 131.479 77.9613 131.494 77.8233C131.509 77.685 131.498 73.277 131.469 68.0277C131.427 60.314 131.505 58.4102 131.874 58.1039C132.195 57.8369 136.766 57.6952 147.332 57.6251C160.812 57.5353 163.14 57.5408 164.324 56.3795C164.594 56.1146 164.805 55.7889 165.075 55.3875C165.572 54.6474 165.838 53.7759 165.838 52.8842V30.3957C165.838 8.31777 165.908 5.69463 164.636 4.49495ZM124.095 111.127C125.37 104.979 130.924 99.2551 136.868 97.9631C141.167 97.0285 145.479 97.4639 149.153 99.2033C152.068 100.583 155.671 104.185 157.095 107.141C158.743 110.563 158.92 112.473 158.525 122.52C158.152 131.992 157.826 134.047 156.233 137.01C155.093 139.13 151.826 142.486 149.694 143.727C145.03 146.444 138.455 146.595 133.546 144.099C129.717 142.151 126.303 137.949 124.967 133.536C124.198 130.997 123.531 113.849 124.095 111.127ZM21.3096 104.434C23.6425 102.098 26.0976 100.625 28.8523 99.909C29.8935 99.638 32.0435 99.508 34.5707 99.5631C38.4894 99.6487 38.7019 99.6918 41.1263 100.891C45.6417 103.125 49.0041 106.948 50.3813 111.412C51.1445 113.886 51.2319 118.32 50.7153 128.357C50.3683 135.1 49.9174 136.946 47.8621 140.047C43.6605 146.385 35.794 149.243 28.5567 147.063C23.8648 145.649 19.32 141.157 17.6332 136.267C16.914 134.182 16.3608 126.391 16.3464 118.144C16.3344 111.382 17.4516 108.296 21.3096 104.434ZM155.065 110.943C153.667 106.268 150.342 102.833 145.877 101.453C143.606 100.751 139.686 100.614 137.388 101.156C133.736 102.018 130.092 105.073 128.366 108.72C127.661 110.21 127.302 111.839 127.314 113.488L127.365 120.271C127.403 125.379 127.592 130.416 127.785 131.464C128.676 136.309 132.492 140.664 137.092 142.088C139.114 142.714 143.602 142.723 145.348 142.105C150.53 140.27 154.037 136.222 154.796 131.197C154.977 130.003 155.227 125.342 155.351 120.84C155.541 113.976 155.495 112.378 155.065 110.943ZM47.6729 114.429C46.9781 108.659 42.2542 103.735 36.5105 102.793C34.2557 102.423 32.8735 102.427 30.6143 102.808C25.1979 103.722 20.4877 108.659 19.7081 114.241C19.3681 116.677 19.8466 131.586 20.3418 133.965C21.3029 138.585 24.9183 142.538 29.485 143.961C36.2309 146.063 43.2937 142.897 46.1943 136.47C46.6324 135.5 47.0823 134.029 47.1941 133.202C47.5898 130.273 47.9379 116.631 47.6729 114.429ZM114.438 161.602C117.673 158.374 120.615 156.621 124.513 155.599C126.738 155.015 128.261 154.955 141.174 154.938C157.238 154.917 158.301 155.043 162.937 157.504C166.525 159.41 170.637 163.64 172.442 167.282C174.623 171.685 174.977 173.509 174.997 180.479C175.014 186.19 174.976 186.556 174.247 187.73C172.95 189.818 171.91 190.224 165.916 190.984C161.434 191.552 159.638 191.96 155.447 193.358C144.965 196.857 137.139 196.849 126.795 193.331C122.13 191.744 121.126 191.52 115.668 190.848C111.123 190.289 109.913 189.871 108.823 188.484C107.53 186.838 107.342 185.534 107.527 179.505C107.669 174.897 107.845 173.346 108.439 171.458C109.739 167.323 111.34 164.693 114.438 161.602ZM2.87642 168.689C5.85773 163.299 12.4044 158.365 18.0069 157.286C18.8328 157.127 25.8907 156.983 33.691 156.966C49.7129 156.93 50.3275 156.998 54.7588 159.307C59.9069 161.988 64.3748 167.19 66.2079 172.636C67.0698 175.197 67.1763 176.017 67.3195 181.208C67.5017 187.803 67.3608 188.926 66.1742 190.338C64.817 191.953 63.7268 192.319 58.1803 193.024C53.9292 193.564 52.0605 193.992 47.9379 195.371C37.255 198.943 29.4884 198.883 18.5328 195.144C15.098 193.971 13.0824 193.514 9.06263 192.997C3.59689 192.293 2.55439 191.94 1.20789 190.338C0.0195707 188.924 -0.120584 187.798 0.0706286 181.208C0.257169 174.775 0.765734 172.505 2.87642 168.689ZM166.518 164.516C163.894 161.677 161.757 160.252 158.272 159.02C156.543 158.408 154.723 158.092 152.889 158.085L142.145 158.04C134.712 158.01 127.842 158.121 126.878 158.287C120.244 159.432 114.266 164.624 111.857 171.331C111.048 173.582 110.96 174.325 110.843 179.846L110.738 184.819C110.723 185.497 111.028 186.142 111.56 186.561C112.179 187.048 113.374 187.339 116.013 187.644C120.983 188.22 123.32 188.746 127.893 190.32C132.805 192.01 136.544 192.675 141.144 192.675C145.817 192.675 149.658 191.981 154.993 190.173C159.843 188.529 161.389 188.19 166.658 187.618C169.107 187.353 170.4 187.225 171.082 186.512C171.858 185.701 171.843 184.133 171.839 180.745C171.829 172.708 170.587 168.917 166.518 164.516ZM58.3855 165.916C56.0005 163.496 54.0991 162.263 50.75 160.965C49.2896 160.399 47.7379 160.105 46.1716 160.097L34.5253 160.037C23.8084 159.982 20.0385 160.07 18.5075 160.412C11.5457 161.969 5.48265 168.013 3.82647 175.047C3.25884 177.456 3.12636 187.337 3.64828 188.314C4.08643 189.134 4.52592 189.268 8.09322 189.669C13.5059 190.278 15.403 190.695 20.3429 192.358C26.0759 194.288 28.5473 194.73 33.691 194.742C38.6939 194.755 41.2645 194.305 46.5447 192.492C51.1411 190.915 54.291 190.209 58.3852 189.84C61.7653 189.536 63.313 189.101 63.7188 188.342C64.26 187.329 64.1319 177.494 63.5453 175.001C62.7974 171.825 60.8773 168.444 58.3855 165.916Z" fill="#121330"/>
<path fill-rule="evenodd" clip-rule="evenodd" d="M119.081 75.3776L116.116 74.1069C116.116 74.2249 115.703 74.6014 115.199 74.9442C114.347 75.5223 113.215 75.5794 99.5432 75.7344L84.8052 75.9015L74.6292 85.842L64.4532 95.783L54.5338 85.7719L44.6148 75.7608L30.0596 75.6639C15.5992 75.568 15.4977 75.5623 14.4579 74.8199C14.1429 74.595 13.8747 74.4119 13.6462 74.1881C12.3084 72.8779 12.3342 70.1752 12.3342 49.5415C12.3342 37.5317 12.4316 27.2183 12.5504 26.6229C12.8014 25.367 14.6294 23.395 15.7406 23.1818C16.1614 23.1013 25.0273 23.0148 35.4432 22.9897L54.381 22.9443V19.9373H35.7099C23.266 19.9373 16.4618 20.0612 15.3082 20.3088C13.9263 20.6055 13.2242 21.0265 11.8246 22.397C10.3747 23.817 10.0079 24.4194 9.70126 25.8842C9.20137 28.2734 9.18602 70.3481 9.68424 72.6739C10.107 74.6475 11.7906 76.7645 13.7881 77.834C15.1433 78.5597 15.4503 78.5764 29.205 78.6746L43.2389 78.7745L53.5631 89.1157C59.8998 95.4625 64.1338 99.4566 64.5249 99.4566C64.9147 99.4566 69.1945 95.4382 75.5552 89.099L85.9484 78.7414H99.3473C107.602 78.7414 113.386 78.6041 114.411 78.3839C115.552 78.139 116.547 77.6105 117.578 76.7023L119.081 75.3776Z" fill="#07A889"/>
</svg>
