<svg width="28" height="8" viewBox="0 0 28 8" fill="none" xmlns="http://www.w3.org/2000/svg">
<path fill-rule="evenodd" clip-rule="evenodd" d="M21.4863 0.0320888C21.4705 0.0535716 21.467 0.093261 21.4759 0.147529C21.4902 0.234076 21.5981 0.492903 21.6625 0.595171C21.7138 0.676771 21.7097 0.687809 21.6426 0.648582C21.471 0.548226 21.3877 0.667822 21.4157 0.974365C21.4225 1.04884 21.4799 1.40167 21.5433 1.75843C21.7177 2.74049 21.7659 3.08848 21.7903 3.54419C21.8028 3.77593 21.8017 3.78598 21.7662 3.77357C21.6378 3.72865 21.0291 3.64477 20.475 3.59562C18.6521 3.43398 19.5397 3.35234 10.825 3.2376C7.18134 3.18962 5.14195 3.18296 4.06389 3.22668C2.2722 3.2993 1.48583 3.37268 0.690278 3.54149C0.210273 3.64334 0 3.71605 0 3.78019C0 3.80847 0.104242 3.84301 0.267984 3.86894C0.59185 3.92024 1.79523 4.00105 2.55694 4.02266C5.89124 4.11726 8.1644 4.23877 13.2736 4.30033C18.2571 4.34796 20.8616 4.32553 21.669 4.25328L21.8228 4.23951L21.8104 4.79653C21.7981 5.35042 21.7682 5.73456 21.6704 6.59592C21.6349 6.90903 21.6211 7.12054 21.6253 7.28856C21.6311 7.51865 21.6286 7.53676 21.5743 7.66047C21.5373 7.74486 21.517 7.82589 21.5163 7.89135C21.5153 7.98577 21.5187 7.99263 21.5697 7.99925C21.6545 8.01027 21.8341 7.90078 22.2056 7.61159C23.3494 6.72112 23.669 6.4867 24.2569 6.1068C25.0521 5.59306 25.6257 5.29334 27.0667 4.63867C27.4426 4.46789 27.6945 4.32311 27.7533 4.244C27.7782 4.21055 27.833 4.17064 27.875 4.15534C27.9707 4.12042 28 4.09445 28 4.0445C28 3.95144 27.7517 3.79394 27.2064 3.54118C25.1068 2.56783 24.1635 1.9876 22.4972 0.644492C21.7641 0.0535272 21.5609 -0.0695644 21.4863 0.0320888ZM22.9114 2.10662C23.8994 3.01963 25.2128 3.74374 26.4056 4.03313L26.6097 4.08267L26.4931 4.10958C25.7978 4.26999 25.3204 4.43796 24.7236 4.73203C23.9637 5.1065 23.0858 5.75184 22.5515 6.32867L22.46 6.42749L22.5375 6.20133C23.0558 4.69021 23.0157 3.05701 22.4279 1.73352L22.3386 1.53259L22.555 1.75489C22.674 1.87717 22.8343 2.03544 22.9114 2.10662Z" fill="url(#paint0_linear_203_424)"/>
<defs>
<linearGradient id="paint0_linear_203_424" x1="-4.56351e-08" y1="4" x2="28" y2="4" gradientUnits="userSpaceOnUse">
<stop stop-color="#00AEEF"/>
<stop offset="1" stop-color="#8CC63F"/>
</linearGradient>
</defs>
</svg>
