<svg width="30" height="30" viewBox="0 0 30 30" fill="none" xmlns="http://www.w3.org/2000/svg">
<circle cx="15" cy="15" r="15" fill="#5CCF78"/>
<g clip-path="url(#clip0_246_438)">
<path d="M22 19.266C22 19.5802 21.89 19.8474 21.67 20.0673L20.0673 21.67C19.8474 21.89 19.5802 22 19.266 22C18.9517 22 18.6846 21.89 18.4646 21.67L15 18.2054L11.5354 21.67C11.3154 21.89 11.0483 22 10.734 22C10.4198 22 10.1526 21.89 9.93266 21.67L8.32997 20.0673C8.10999 19.8474 8 19.5802 8 19.266C8 18.9517 8.10999 18.6846 8.32997 18.4646L11.7946 15L8.32997 11.5354C8.10999 11.3154 8 11.0483 8 10.734C8 10.4198 8.10999 10.1526 8.32997 9.93266L9.93266 8.32997C10.1526 8.10999 10.4198 8 10.734 8C11.0483 8 11.3154 8.10999 11.5354 8.32997L15 11.7946L18.4646 8.32997C18.6846 8.10999 18.9517 8 19.266 8C19.5802 8 19.8474 8.10999 20.0673 8.32997L21.67 9.93266C21.89 10.1526 22 10.4198 22 10.734C22 11.0483 21.89 11.3154 21.67 11.5354L18.2054 15L21.67 18.4646C21.89 18.6846 22 18.9517 22 19.266Z" fill="white"/>
</g>
<defs>
<clipPath id="clip0_246_438">
<rect width="14" height="14" fill="white" transform="translate(8 8)"/>
</clipPath>
</defs>
</svg>
